<?xml version="1.0" encoding="UTF-8" standalone="no"?>
<!-- Created with Inkscape (http://www.inkscape.org/) -->

<svg
   xmlns:dc="http://purl.org/dc/elements/1.1/"
   xmlns:cc="http://creativecommons.org/ns#"
   xmlns:rdf="http://www.w3.org/1999/02/22-rdf-syntax-ns#"
   xmlns:svg="http://www.w3.org/2000/svg"
   xmlns="http://www.w3.org/2000/svg"
   xmlns:xlink="http://www.w3.org/1999/xlink"
   xmlns:sodipodi="http://sodipodi.sourceforge.net/DTD/sodipodi-0.dtd"
   xmlns:inkscape="http://www.inkscape.org/namespaces/inkscape"
   width="1000"
   height="1200"
   viewBox="0 0 1000 1200"
   version="1.1"
   id="svg8"
   inkscape:version="0.92.3 (2405546, 2018-03-11)"
   sodipodi:docname="eicas-aice.svg">
  <defs
     id="defs2" />
  <sodipodi:namedview
     id="base"
     pagecolor="#ffffff"
     bordercolor="#00ff00"
     borderopacity="1"
     inkscape:pageopacity="0.0"
     inkscape:pageshadow="2"
     inkscape:zoom="2.8284271"
     inkscape:cx="488.09894"
     inkscape:cy="630.42303"
     inkscape:document-units="px"
     inkscape:current-layer="layer2"
     showgrid="false"
     units="px"
     inkscape:pagecheckerboard="true"
     inkscape:showpageshadow="false"
     objecttolerance="10"
     gridtolerance="10"
     inkscape:window-width="1920"
     inkscape:window-height="1018"
     inkscape:window-x="-8"
     inkscape:window-y="-8"
     inkscape:window-maximized="1"
     borderlayer="true" />
  <metadata
     id="metadata5">
    <rdf:RDF>
      <cc:Work
         rdf:about="">
        <dc:format>image/svg+xml</dc:format>
        <dc:type
           rdf:resource="http://purl.org/dc/dcmitype/StillImage" />
        <dc:title />
      </cc:Work>
    </rdf:RDF>
  </metadata>
  <g
     inkscape:groupmode="layer"
     id="layer2"
     inkscape:label="static">
    <text
       xml:space="preserve"
       style="font-style:normal;font-variant:normal;font-weight:normal;font-stretch:normal;font-size:37.33333206px;line-height:125%;font-family:Sans;-inkscape-font-specification:'Sans, Normal';font-variant-ligatures:normal;font-variant-caps:normal;font-variant-numeric:normal;font-feature-settings:normal;text-align:start;letter-spacing:0px;word-spacing:0px;writing-mode:lr-tb;text-anchor:start;fill:#0000ff;fill-opacity:1;stroke:none;stroke-width:1px;stroke-linecap:butt;stroke-linejoin:miter;stroke-opacity:1;"
       x="399.05362"
       y="101.65816"
       id="text1015"><tspan
         sodipodi:role="line"
         id="tspan1013"
         x="399.05362"
         y="101.65816"
         style="font-style:normal;font-variant:normal;font-weight:normal;font-stretch:normal;font-size:48px;font-family:Sans;-inkscape-font-specification:'Sans, Normal';font-variant-ligatures:normal;font-variant-caps:normal;font-variant-numeric:normal;font-feature-settings:normal;text-align:start;writing-mode:lr-tb;text-anchor:start;fill:#0000ff;">ANTI-ICE</tspan></text>
    <path
       style="opacity:1;fill:none;fill-opacity:1;stroke:#0000ff;stroke-width:2;stroke-linejoin:round;stroke-miterlimit:4;stroke-dasharray:none;stroke-dashoffset:0;stroke-opacity:1;paint-order:normal"
       d="M 484.24682,228.43528 H 441.23463 L 316.07673,306.92413 46.669048,439.1531 V 627.24351 L 297.69195,520.47038 484.24682,499.96429 Z"
       id="path5227"
       inkscape:connector-curvature="0"
       sodipodi:nodetypes="cccccccc" />
    <path
       style="opacity:1;fill:none;fill-opacity:1;stroke:#0000ff;stroke-width:2;stroke-linejoin:round;stroke-miterlimit:4;stroke-dasharray:none;stroke-dashoffset:0;stroke-opacity:1;paint-order:normal"
       d="m 515.18796,228.43528 h 43.01219 l 125.1579,78.48885 269.40768,132.22897 V 627.24351 L 701.74283,520.47038 515.18796,499.96429 Z"
       id="path5227-0"
       inkscape:connector-curvature="0"
       sodipodi:nodetypes="cccccccc" />
    <path
       style="color:#000000;display:inline;overflow:visible;visibility:visible;fill:none;fill-rule:evenodd;stroke:#ffffff;stroke-width:2;stroke-linecap:butt;stroke-linejoin:miter;stroke-miterlimit:4;stroke-dasharray:none;stroke-dashoffset:0;stroke-opacity:1;marker:none;marker-start:none;marker-mid:none;marker-end:none;enable-background:accumulate"
       d="m 63.283245,839.55262 h -8.07423 c -14.435741,-36.3749 -11.010311,-72.2603 0,-107.65645 h 70.710675 c 11.74433,35.39615 10.52097,71.77095 0,107.65645 h -9.05293 l -13.94639,66.5512 H 78.697685 l -15.41444,-66.5512 h 53.583515 z"
       id="eng0"
       inkscape:connector-curvature="0"
       sodipodi:nodetypes="ccccccccccc"
       inkscape:label="#path6455" />
    <path
       style="color:#000000;display:inline;overflow:visible;visibility:visible;fill:none;fill-rule:evenodd;stroke:#ffffff;stroke-width:2;stroke-linecap:butt;stroke-linejoin:miter;stroke-miterlimit:4;stroke-dasharray:none;stroke-dashoffset:0;stroke-opacity:1;marker:none;marker-start:none;marker-mid:none;marker-end:none;enable-background:accumulate"
       d="m 881.38157,839.55262 h -8.07423 c -14.43574,-36.3749 -11.01031,-72.2603 0,-107.65645 h 70.71068 c 11.74433,35.39615 10.52097,71.77095 0,107.65645 h -9.05293 l -13.94639,66.5512 h -24.22269 l -15.41444,-66.5512 h 53.58352 z"
       id="eng1"
       inkscape:connector-curvature="0"
       sodipodi:nodetypes="ccccccccccc"
       inkscape:label="" />
    <g
       transform="matrix(-1.0800498,0,0,-1.0800498,1336.7351,1166.5887)"
       id="sov1"
       inkscape:label="">
      <path
         inkscape:connector-curvature="0"
         style="opacity:1;fill:none;fill-opacity:1;stroke:#ffffff;stroke-width:2;stroke-linejoin:round;stroke-miterlimit:4;stroke-dasharray:none;stroke-dashoffset:0;stroke-opacity:1;paint-order:normal"
         d="m 507.07452,290.76788 c -16.08458,0 -29.12371,-13.03913 -29.12371,-29.12371 m 0,0 c 0,-16.08458 13.03913,-29.12372 29.12371,-29.12372 16.08459,0 29.12372,13.03913 29.12372,29.12372 0,16.08458 -13.03914,29.12371 -29.12372,29.12371"
         id="circle2359-2-2-81"
         sodipodi:nodetypes="cccssc" />
      <path
         inkscape:connector-curvature="0"
         style="opacity:1;fill:none;fill-opacity:1;stroke:#ffffff;stroke-width:2;stroke-linejoin:round;stroke-miterlimit:4;stroke-dasharray:none;stroke-dashoffset:0;stroke-opacity:1;paint-order:normal"
         d="m 497.99054,233.97607 h 18.16796 v 55.33619 h -18.16796 z"
         id="sov1line" />
    </g>
    <g
       transform="matrix(1.0800498,0,0,1.0800498,-336.73512,601.41123)"
       id="sov0"
       inkscape:label="">
      <path
         inkscape:connector-curvature="0"
         style="opacity:1;fill:none;fill-opacity:1;stroke:#ffffff;stroke-width:2;stroke-linejoin:round;stroke-miterlimit:4;stroke-dasharray:none;stroke-dashoffset:0;stroke-opacity:1;paint-order:normal"
         d="M 493.79194,287.56257 C 479.4776,280.2268 473.82036,262.67592 481.15612,248.36158 m 0,0 c 7.33577,-14.31433 24.88665,-19.97159 39.20099,-12.63583 14.31434,7.33579 19.97159,24.88667 12.63582,39.201 -7.33578,14.31434 -24.88666,19.97158 -39.20099,12.63582"
         id="circle2359-2-2-81-8"
         sodipodi:nodetypes="cccssc" />
      <path
         inkscape:connector-curvature="0"
         style="opacity:1;fill:none;fill-opacity:1;stroke:#ffffff;stroke-width:2;stroke-linejoin:round;stroke-miterlimit:4;stroke-dasharray:none;stroke-dashoffset:0;stroke-opacity:1;paint-order:normal"
         d="m 497.99054,233.97607 h 18.16796 v 55.33619 h -18.16796 z"
         id="sov0line" />
    </g>
    <text
       xml:space="preserve"
       style="font-style:normal;font-variant:normal;font-weight:normal;font-stretch:normal;font-size:40px;line-height:125%;font-family:Sans;-inkscape-font-specification:'Sans, Normal';font-variant-ligatures:normal;font-variant-caps:normal;font-variant-numeric:normal;font-feature-settings:normal;text-align:start;letter-spacing:0px;word-spacing:0px;writing-mode:lr-tb;text-anchor:start;fill:#ff0000;fill-opacity:1;stroke:none;stroke-width:1px;stroke-linecap:butt;stroke-linejoin:miter;stroke-opacity:1"
       x="138"
       y="306"
       id="ovht0"><tspan
         sodipodi:role="line"
         id="tspan5292"
         x="138"
         y="306">OVHT</tspan></text>
    <text
       xml:space="preserve"
       style="font-style:normal;font-variant:normal;font-weight:normal;font-stretch:normal;font-size:40px;line-height:125%;font-family:Sans;-inkscape-font-specification:'Sans, Normal';font-variant-ligatures:normal;font-variant-caps:normal;font-variant-numeric:normal;font-feature-settings:normal;text-align:start;letter-spacing:0px;word-spacing:0px;writing-mode:lr-tb;text-anchor:start;fill:#ff0000;fill-opacity:1;stroke:none;stroke-width:1px;stroke-linecap:butt;stroke-linejoin:miter;stroke-opacity:1;"
       x="738.5"
       y="303.56055"
       id="ovht1"
       inkscape:label="#text5294-8"><tspan
         sodipodi:role="line"
         id="tspan5292-5"
         x="738.5"
         y="303.56055">OVHT</tspan></text>
    <text
       xml:space="preserve"
       style="font-style:normal;font-variant:normal;font-weight:normal;font-stretch:normal;font-size:40px;line-height:125%;font-family:Sans;-inkscape-font-specification:'Sans, Normal';font-variant-ligatures:normal;font-variant-caps:normal;font-variant-numeric:normal;font-feature-settings:normal;text-align:start;letter-spacing:0px;word-spacing:0px;writing-mode:lr-tb;text-anchor:start;fill:#ffffff;fill-opacity:1;stroke:none;stroke-width:1px;stroke-linecap:butt;stroke-linejoin:miter;stroke-opacity:1"
       x="464.34482"
       y="206.22629"
       id="tIce"
       inkscape:label=""><tspan
         sodipodi:role="line"
         id="tspan5292-58"
         x="464.34482"
         y="206.22629">ICE</tspan></text>
    <path
       inkscape:connector-curvature="0"
       style="opacity:1;fill:none;fill-opacity:1;stroke:#ffffff;stroke-width:2;stroke-linejoin:round;stroke-miterlimit:4;stroke-dasharray:none;stroke-dashoffset:0;stroke-opacity:1;paint-order:normal"
       d="m 144.19454,893.81111 -18.27485,-54.25849 c 3.47335,-11.57116 5.18468,-22.49297 7.52485,-32.86381 l 25.92658,67.5 h 21.67658 v 19.6223 z"
       id="line0"
       sodipodi:nodetypes="ccccccc" />
    <path
       inkscape:connector-curvature="0"
       style="opacity:1;fill:none;fill-opacity:1;stroke:#ffffff;stroke-width:2;stroke-linejoin:round;stroke-miterlimit:4;stroke-dasharray:none;stroke-dashoffset:0;stroke-opacity:1;paint-order:normal"
       d="m 855.03249,893.81111 18.27485,-54.25849 c -3.47335,-11.57116 -5.18468,-22.49297 -7.52485,-32.86381 l -25.92658,67.5 h -21.67658 v 19.6223 z"
       id="line1"
       sodipodi:nodetypes="ccccccc"
       inkscape:label="" />
    <path
       inkscape:connector-curvature="0"
       style="opacity:1;fill:none;fill-opacity:1;stroke:#ffffff;stroke-width:2.16009951;stroke-linejoin:round;stroke-miterlimit:4;stroke-dasharray:none;stroke-dashoffset:0;stroke-opacity:1;paint-order:normal"
       d="m 468.57939,874.18882 v 19.6223 H 240.81354 v -19.6223 h 29.22073 V 755.31114 h -36.15135 v -19.6223 h 62.09281 v 138.49998 h 112.71313 v -140.8059 h 19.6223 v 140.8059 z"
       id="line2"
       sodipodi:nodetypes="ccccccccccccccc"
       inkscape:label="" />
    <g
       transform="matrix(-1.0800498,0,0,-1.0800498,1343.6657,1028.0887)"
       id="cowlsov1"
       inkscape:label="">
      <path
         inkscape:connector-curvature="0"
         style="opacity:1;fill:none;fill-opacity:1;stroke:#ffffff;stroke-width:2;stroke-linejoin:round;stroke-miterlimit:4;stroke-dasharray:none;stroke-dashoffset:0;stroke-opacity:1;paint-order:normal"
         d="m 507.07452,290.76788 c -16.08458,0 -29.12371,-13.03913 -29.12371,-29.12371 m 0,0 c 0,-16.08458 13.03913,-29.12372 29.12371,-29.12372 16.08459,0 29.12372,13.03913 29.12372,29.12372 0,16.08458 -13.03914,29.12371 -29.12372,29.12371"
         id="circle2359-2-2-81-0"
         sodipodi:nodetypes="cccssc" />
      <path
         inkscape:connector-curvature="0"
         style="opacity:1;fill:none;fill-opacity:1;stroke:#ffffff;stroke-width:2;stroke-linejoin:round;stroke-miterlimit:4;stroke-dasharray:none;stroke-dashoffset:0;stroke-opacity:1;paint-order:normal"
         d="m 497.99054,233.97607 h 18.16796 v 55.33619 h -18.16796 z"
         id="cowlsov1line" />
    </g>
    <g
       transform="matrix(-1.0800498,0,0,-1.0800498,751.66574,1028.0887)"
       id="cowlsov0"
       inkscape:label="">
      <path
         inkscape:connector-curvature="0"
         style="opacity:1;fill:none;fill-opacity:1;stroke:#ffffff;stroke-width:2;stroke-linejoin:round;stroke-miterlimit:4;stroke-dasharray:none;stroke-dashoffset:0;stroke-opacity:1;paint-order:normal"
         d="m 507.07452,290.76788 c -16.08458,0 -29.12371,-13.03913 -29.12371,-29.12371 m 0,0 c 0,-16.08458 13.03913,-29.12372 29.12371,-29.12372 16.08459,0 29.12372,13.03913 29.12372,29.12372 0,16.08458 -13.03914,29.12371 -29.12372,29.12371"
         id="circle2359-2-2-81-1"
         sodipodi:nodetypes="cccssc" />
      <path
         inkscape:connector-curvature="0"
         style="opacity:1;fill:none;fill-opacity:1;stroke:#ffffff;stroke-width:2;stroke-linejoin:round;stroke-miterlimit:4;stroke-dasharray:none;stroke-dashoffset:0;stroke-opacity:1;paint-order:normal"
         d="m 497.99054,233.97607 h 18.16796 v 55.33619 h -18.16796 z"
         id="cowlsov0line" />
    </g>
    <g
       transform="matrix(0,-1.0800498,1.0800498,0,135.91127,1251.1657)"
       id="wingsov0"
       inkscape:label="">
      <path
         inkscape:connector-curvature="0"
         style="opacity:1;fill:none;fill-opacity:1;stroke:#ffffff;stroke-width:2;stroke-linejoin:round;stroke-miterlimit:4;stroke-dasharray:none;stroke-dashoffset:0;stroke-opacity:1;paint-order:normal"
         d="m 507.07452,290.76788 c -16.08458,0 -29.12371,-13.03913 -29.12371,-29.12371 m 0,0 c 0,-16.08458 13.03913,-29.12372 29.12371,-29.12372 16.08459,0 29.12372,13.03913 29.12372,29.12372 0,16.08458 -13.03914,29.12371 -29.12372,29.12371"
         id="circle2359-2-2-81-6"
         sodipodi:nodetypes="cccssc" />
      <path
         inkscape:connector-curvature="0"
         style="opacity:1;fill:none;fill-opacity:1;stroke:#ffffff;stroke-width:2;stroke-linejoin:round;stroke-miterlimit:4;stroke-dasharray:none;stroke-dashoffset:0;stroke-opacity:1;paint-order:normal"
         d="m 497.99054,233.97607 h 18.16796 v 55.33619 h -18.16796 z"
         id="wingsov0line" />
    </g>
    <g
       transform="matrix(0,-1.0800498,1.0800498,0,298.91123,1251.1657)"
       id="wingsov1"
       inkscape:label="">
      <path
         inkscape:connector-curvature="0"
         style="opacity:1;fill:none;fill-opacity:1;stroke:#ffffff;stroke-width:2;stroke-linejoin:round;stroke-miterlimit:4;stroke-dasharray:none;stroke-dashoffset:0;stroke-opacity:1;paint-order:normal"
         d="m 507.07452,290.76788 c -16.08458,0 -29.12371,-13.03913 -29.12371,-29.12371 m 0,0 c 0,-16.08458 13.03913,-29.12372 29.12371,-29.12372 16.08459,0 29.12372,13.03913 29.12372,29.12372 0,16.08458 -13.03914,29.12371 -29.12372,29.12371"
         id="circle2359-2-2-81-7"
         sodipodi:nodetypes="cccssc" />
      <path
         inkscape:connector-curvature="0"
         style="opacity:1;fill:none;fill-opacity:1;stroke:#ffffff;stroke-width:2;stroke-linejoin:round;stroke-miterlimit:4;stroke-dasharray:none;stroke-dashoffset:0;stroke-opacity:1;paint-order:normal"
         d="m 497.99054,233.97607 h 18.16796 v 55.33619 h -18.16796 z"
         id="wingsov1line" />
    </g>
    <g
       transform="matrix(-1.0800498,0,0,-1.0800498,1047.948,818.61545)"
       id="xbleed"
       inkscape:label="">
      <path
         inkscape:connector-curvature="0"
         style="opacity:1;fill:none;fill-opacity:1;stroke:#ffffff;stroke-width:2;stroke-linejoin:round;stroke-miterlimit:4;stroke-dasharray:none;stroke-dashoffset:0;stroke-opacity:1;paint-order:normal"
         d="m 507.07452,290.76788 c -16.08458,0 -29.12371,-13.03913 -29.12371,-29.12371 m 0,0 c 0,-16.08458 13.03913,-29.12372 29.12371,-29.12372 16.08459,0 29.12372,13.03913 29.12372,29.12372 0,16.08458 -13.03914,29.12371 -29.12372,29.12371"
         id="circle2359-2-2-81-3"
         sodipodi:nodetypes="cccssc" />
      <path
         inkscape:connector-curvature="0"
         style="opacity:1;fill:none;fill-opacity:1;stroke:#ffffff;stroke-width:2;stroke-linejoin:round;stroke-miterlimit:4;stroke-dasharray:none;stroke-dashoffset:0;stroke-opacity:1;paint-order:normal"
         d="m 497.99054,233.97607 h 18.16796 v 55.33619 h -18.16796 z"
         id="xbleedline" />
    </g>
    <path
       inkscape:connector-curvature="0"
       style="opacity:1;fill:none;fill-opacity:1;stroke:#ffffff;stroke-width:2.16009951;stroke-linejoin:round;stroke-miterlimit:4;stroke-dasharray:none;stroke-dashoffset:0;stroke-opacity:1;paint-order:normal"
       d="m 531.42059,874.18881 v 19.6223 h 227.76586 v -19.6223 H 729.96571 V 755.31113 h 36.15136 v -19.6223 H 704.02425 V 874.18881 H 591.31112 v -140.8059 h -19.6223 v 140.8059 z"
       id="line3"
       sodipodi:nodetypes="ccccccccccccccc"
       inkscape:label="" />
    <g
       transform="matrix(1.0800498,0,0,1.0800498,-47.188721,601.41123)"
       id="sov4"
       inkscape:label="">
      <path
         inkscape:connector-curvature="0"
         style="opacity:1;fill:none;fill-opacity:1;stroke:#ffffff;stroke-width:2;stroke-linejoin:round;stroke-miterlimit:4;stroke-dasharray:none;stroke-dashoffset:0;stroke-opacity:1;paint-order:normal"
         d="m 507.07452,290.76788 c -16.08458,0 -29.12371,-13.03913 -29.12371,-29.12371 m 0,0 c 0,-16.08458 13.03913,-29.12372 29.12371,-29.12372 16.08459,0 29.12372,13.03913 29.12372,29.12372 0,16.08458 -13.03914,29.12371 -29.12372,29.12371"
         id="circle2359-2-2-81-7-1"
         sodipodi:nodetypes="cccssc" />
      <path
         inkscape:connector-curvature="0"
         style="opacity:1;fill:none;fill-opacity:1;stroke:#ffffff;stroke-width:2;stroke-linejoin:round;stroke-miterlimit:4;stroke-dasharray:none;stroke-dashoffset:0;stroke-opacity:1;paint-order:normal"
         d="m 497.99054,233.97607 h 18.16796 v 55.33619 h -18.16796 z"
         id="sov4line" />
    </g>
    <path
       inkscape:connector-curvature="0"
       style="opacity:1;fill:none;fill-opacity:1;stroke:#ffffff;stroke-width:2.16009951;stroke-linejoin:round;stroke-miterlimit:4;stroke-dasharray:none;stroke-dashoffset:0;stroke-opacity:1;paint-order:normal"
       d="m 469.33447,545.83788 v -19.6223 h -41.02331 l 0.002,-270.9044 -343.27927,188.5 v 25.87768 l 323.65459,-174 v 377.92822 h 19.6223 v -127.7792 z"
       id="wing0-outline"
       sodipodi:nodetypes="ccccccccccc"
       inkscape:label="" />
    <path
       inkscape:connector-curvature="0"
       style="opacity:1;fill:none;fill-opacity:1;stroke:#ffffff;stroke-width:2.16009951;stroke-linejoin:round;stroke-miterlimit:4;stroke-dasharray:none;stroke-dashoffset:0;stroke-opacity:1;paint-order:normal"
       d="m 530.66513,545.83787 v -19.6223 h 41.02331 l -0.002,-270.9044 343.27927,188.5 v 25.87768 l -323.65459,-174 v 377.92822 h -19.6223 v -127.7792 z"
       id="wing1-outline"
       sodipodi:nodetypes="ccccccccccc"
       inkscape:label="" />
    <path
       inkscape:connector-curvature="0"
       style="opacity:1;fill:none;fill-opacity:1;stroke:#ffffff;stroke-width:2;stroke-linejoin:round;stroke-miterlimit:4;stroke-dasharray:none;stroke-dashoffset:0;stroke-opacity:1;paint-order:normal"
       d="m 866.97869,755.31113 -0.58529,5.49203 h 84.42805 c -1.84576,-9.94357 -2.43352,-16.50641 -6.80343,-28.90699 h -70.71068 l -1.32756,3.79266 h -46.09689 v 19.6223 z"
       id="cowl1"
       sodipodi:nodetypes="ccccccccc"
       inkscape:label="" />
    <path
       inkscape:connector-curvature="0"
       style="opacity:1;fill:none;fill-opacity:1;stroke:#ffffff;stroke-width:2;stroke-linejoin:round;stroke-miterlimit:4;stroke-dasharray:none;stroke-dashoffset:0;stroke-opacity:1;paint-order:normal"
       d="m 132.31416,755.31114 0.58529,5.49203 H 48.471413 c 1.84576,-9.94357 2.43352,-16.50641 6.80343,-28.90699 h 70.710667 l 1.32756,3.79266 h 46.09689 v 19.6223 z"
       id="cowl0"
       sodipodi:nodetypes="ccccccccc"
       inkscape:label="" />
    <path
       inkscape:connector-curvature="0"
       style="opacity:1;fill:#00ff00;fill-opacity:1;stroke:none;stroke-width:2.16009951;stroke-linejoin:round;stroke-miterlimit:4;stroke-dasharray:none;stroke-dashoffset:0;stroke-opacity:1;paint-order:normal"
       d="m 530.66513,545.83788 v -19.6223 h 41.02331 l -0.002,-270.90441 343.27927,188.50001 v 25.87768 L 591.31112,295.68885 v 250.14903 h -19.6223 v 0 z"
       id="wing11"
       sodipodi:nodetypes="ccccccccccc"
       inkscape:label="" />
    <path
       inkscape:connector-curvature="0"
       style="opacity:1;fill:#00ff00;fill-opacity:1;stroke:none;stroke-width:2.16009951;stroke-linejoin:round;stroke-miterlimit:4;stroke-dasharray:none;stroke-dashoffset:0;stroke-opacity:1;paint-order:normal"
       d="m 469.33447,545.83788 v -19.6223 h -41.02331 l 0.002,-270.9044 -343.27927,188.5 v 25.87768 l 323.65459,-174 v 250.14902 h 19.6223 v 0 z"
       id="wing01"
       sodipodi:nodetypes="ccccccccccc"
       inkscape:label="" />
    <path
       inkscape:connector-curvature="0"
       style="opacity:1;fill:#00ff00;fill-opacity:1;stroke:none;stroke-width:2.16009951;stroke-linejoin:round;stroke-miterlimit:4;stroke-dasharray:none;stroke-dashoffset:0;stroke-opacity:1;paint-order:normal"
       d="m 469.33447,545.83788 v -19.6223 h -60.64599 v 147.4015 h 19.6223 v -127.7792 z"
       id="wing0"
       sodipodi:nodetypes="ccccccc"
       inkscape:label="" />
    <path
       inkscape:connector-curvature="0"
       style="opacity:1;fill:#00ff00;fill-opacity:1;stroke:none;stroke-width:2.16009951;stroke-linejoin:round;stroke-miterlimit:4;stroke-dasharray:none;stroke-dashoffset:0;stroke-opacity:1;paint-order:normal"
       d="m 530.66513,545.83788 v -19.6223 h 60.64599 v 147.4015 h -19.6223 v -127.7792 z"
       id="wing1"
       sodipodi:nodetypes="ccccccc"
       inkscape:label="" />
  </g>
  <g
     inkscape:groupmode="layer"
     id="layer3"
     inkscape:label="common 1" />
</svg>
